<svg id="Layer_1" xmlns="http://www.w3.org/2000/svg" viewBox="0 0 245.7 78.7"><style>.st0{fill:#fff}</style><path class="st0" d="M103.7 18H118c7.6 0 11.5 4.4 11.5 10 0 3.6-2.2 6.8-5.7 7.7 4.4 1.1 7.3 3.8 7.3 9 0 6.1-4.5 10.8-12.2 10.8h-15.2V18zM117 32.8c3.1 0 4.8-1.5 4.8-4s-1.4-4-4.4-4h-6v8.1l5.6-.1zm1.5 15.9c2.8 0 4.7-1.9 4.7-4.7 0-2.8-2-4.6-5.2-4.6h-6.7v9.3h7.2zm13.7-25.3c0-2.7 2.2-4.6 4.7-4.6s4.7 1.9 4.7 4.6c0 2.8-2.2 4.7-4.7 4.7s-4.7-2-4.7-4.7zm1 8.6h7.4v23.5h-7.4V32zm42.9 16.8c-.5.3-1.4 1-2.6 1-1.2 0-1.9-.5-1.9-2.9v-8.7h6V32h-6v-8.4h-7.4V32h-10.5v-8.4h-7.4V32h-3.5v6.2h3.5v8.5c0 7.1 3.4 9.4 8.2 9.4 3.4 0 5.4-1.2 6.6-2.2l-2.8-5.2c-.5.3-1.4 1-2.6 1-1.2 0-1.9-.5-1.9-2.9v-8.7h10.5v8.5c0 7.1 3.4 9.4 8.2 9.4 3.4 0 5.4-1.2 6.6-2.2l-3-5zm25.4 4.7c-2.1 1.5-4.7 2.5-8.8 2.5-8.4 0-13.8-5.1-13.8-12.3 0-7.1 5.7-12.2 13-12.2 8.4 0 13 6.3 12.5 14.5h-17.8c.7 2.4 2.7 3.8 6.1 3.8 2.7 0 4.7-1 5.9-1.9l2.9 5.6zm-4.7-11.8c-.3-2.6-2-4.1-4.9-4.1s-4.9 1.3-5.5 4.1h10.4zm9.8-9.7h7.4l-.1 4.2c1.7-3.9 4.5-4.7 6.9-4.7 1.5 0 2.7.4 3.6.9l-2.4 6.8c-.9-.4-1.8-.7-2.9-.7-3.4 0-5.2 1.5-5.2 6.6v10.4h-7.4l.1-23.5zm16.6 19.5l4.4-3.9c1.6 1.5 3.6 2.5 5.8 2.5 2.4 0 3.2-.4 3.2-1.4 0-1.3-1.5-1.3-5.3-2.3-3.2-.8-6.8-2.6-6.8-7.5 0-5.3 4.1-7.4 9.1-7.4 3.9 0 6.6 1.3 8.6 3.3l-4 4.2c-1.1-.9-2.8-1.8-4.5-1.8-1.7 0-2.5.4-2.5 1.4 0 1.3 1.5 1.5 4.7 2.2 3.4.8 7.7 2.4 7.7 7.3 0 4.3-2.3 7.8-9.7 7.8-5.4.1-8.6-1.9-10.7-4.4zm-160.5-2c-8.5 0-15.3-6.9-15.3-15.3 0-8.9 9.3-17.8 15.4-22.4 6.1 4.6 15.3 13.4 15.3 22.4 0 8.4-6.9 15.3-15.4 15.3z"/><path class="st0" d="M62.7 19.5c.8.7 1.6 1.5 2.5 2.3 4.4 4.5 6.9 8.9 6.9 12.3 0 5.2-4.2 9.3-9.3 9.3s-9.3-4.2-9.3-9.3c-.1-4.5 4.4-10.2 9.2-14.6m0-15.1S41.4 17.7 41.4 34.1c0 11.8 9.6 21.3 21.3 21.3S84 45.8 84 34.1c.1-16.5-21.3-29.7-21.3-29.7zM24.1 49.5c-8.5 0-15.3-6.9-15.3-15.3 0-6.5 4.9-12.7 8.9-16.8 2.3-2.4 4.7-4.3 6.4-5.6 6.1 4.6 15.3 13.4 15.3 22.4 0 8.4-6.8 15.3-15.3 15.3z"/><path class="st0" d="M24.1 19.5c.8.7 1.6 1.5 2.5 2.3 4.4 4.5 6.9 8.9 6.9 12.3 0 5.2-4.2 9.3-9.3 9.3s-9.3-4.2-9.3-9.3c-.2-4.5 4.3-10.2 9.2-14.6m0-15.1S2.8 17.7 2.8 34.1c0 11.8 9.6 21.3 21.3 21.3s21.3-9.6 21.3-21.3c0-16.5-21.3-29.7-21.3-29.7z"/><path class="st0" d="M43.4 70.3C34.9 70.3 28 63.4 28 55c0-8.9 9.3-17.8 15.4-22.4C49.5 37.1 58.7 46 58.7 55c0 8.4-6.9 15.3-15.3 15.3z"/><path class="st0" d="M43.4 40.3c.8.7 1.6 1.5 2.5 2.3 4.4 4.5 6.9 8.9 6.9 12.3 0 5.2-4.2 9.3-9.3 9.3S34 60.1 34 55c0-4.6 4.5-10.3 9.4-14.7m0-15.1S22.1 38.5 22.1 54.9c0 11.8 9.6 21.3 21.3 21.3S64.7 66.8 64.7 55c0-16.6-21.3-29.8-21.3-29.8z"/></svg>