<svg id="Layer_1" xmlns="http://www.w3.org/2000/svg" viewBox="0 0 16 16"><style>.st0{fill:#fff}</style><path class="st0" d="M10.1 13l.4-.7s-1 .4-2.6.4-2.6-.4-2.6-.4l.6.7.1 2.5c0 .3.9.5 2 .5s2-.2 2-.5l.1-2.5zm.4-4.7c-.5 0-.8.6-1 1.2-.1.2-.4 1.2-.6 1s.3-.9.4-1.3c-.2.1-.8.5-.9.1-.3.2-.8.3-.7-.2-.1.2-.4.5-.8.4-.4-.2.3-1.6.5-1.5.2.1 0 .4-.1.5-.1.3-.3.6-.2.7.2.1.6-.5.6-.5.1-.1.3-.8.5-.7.2.1-.4 1-.2 1.2.1 0 .3 0 .4-.2.1 0 0-.2.3-.9.3-.6.5-1.4.7-1.4s0 .5 0 .6c-.3.8-.9 2-.6 1.9.2-.1.3-.1.6-.4s.2-.8.4-.8.1.2.1.3c.2-.2.8-.6.9-.2.2.5-.9 1.1-.6 1.1.3 0 .7-.3.8-.5l.5-4.3s-.5.4-3.6.4-3.5-.4-3.5-.4l.4 4c.2-.7.8-2 1.6-1.9.4 0 .9.7.4.8-.2 0-.2-.4-.4-.4-.2-.1-.4 0-.5.2-.3.2-.9 1.3-.8 1.8.1.7.9-.2 1.1-.5.1-.2.2-.8.4-.7.2.1 0 .6-.2 1.2s-.3 1.2-.5 1.1c-.2-.1.1-.8.1-.9-.2.2-.6.6-1.1.4l.3 2.5s.7.5 2.7.5 2.8-.5 2.8-.5l.3-2.9c-.3.3-1.1.7-1.1.2-.1-.4.8-1 .6-1zM11.6.4L9.8 2.3l-.3 1.3c1.3.1 2.1.3 2.1.5 0 .3-1.6.5-3.6.5S4.4 4.3 4.4 4 6 3.5 8 3.5h.8L9.2 2l1.9-2c0-.1.2 0 .3.1.2.1.2.2.2.3zM9 4.3s-.4 0-.4-.1v-.1s0-.1.1-.1v.1c-.1.1.2.1.3.2.2-.1.4-.1.4-.1s.1 0 .1.1-.1.1-.2.1c-.1-.1-.3-.1-.3-.1z"/></svg>