<svg id="Layer_1" xmlns="http://www.w3.org/2000/svg" viewBox="0 0 1024 768"><style>.st0{fill:#fff}</style><path class="st0" d="M819.2 614.4c0 2.6-.1 5.2-.4 7.8-.7 6.3-2.1 12.6-4.3 18.5-7.7 21-24.7 38.1-45.8 45.8-7.8 2.9-16.1 4.3-24.4 4.6-154.3 2-308.5 0-462.8 0-2.6 0-5.2-.1-7.8-.4-6.3-.7-12.6-2.1-18.5-4.3-11.6-4.3-22.2-11.4-30.5-20.5-7.1-7.8-12.6-17-15.9-27-2.7-7.9-3.9-16.2-4-24.6V76.8L512 384 819.2 76.8v537.6zm-585.6-.2c.1 5.7.9 11.3 2.9 16.7 4.8 13.2 15.4 23.8 28.6 28.6 4.9 1.8 10 2.7 15.2 2.9 154.4 1.9 308.9 1.9 463.3 0 5.2-.2 10.3-1.1 15.2-2.9 13.2-4.8 23.8-15.4 28.6-28.6 2-5.4 2.8-10.9 2.9-16.7V146.3l-258 258-1.8 1.7c-2 1.5-4 3-6.3 4-7.6 3.6-16.7 3.6-24.3 0-2.3-1.1-4.4-2.4-6.3-4-.7-.5-1.2-1.2-1.8-1.7l-258-258c-.2 156-.2 312-.2 467.9z"/><path class="st0" d="M227.3 668.7L512 384l284.7 284.7c-13.9 13.9-33.1 22.5-54.3 22.5H281.6c-21.2 0-40.4-8.6-54.3-22.5z"/></svg>